<svg xmlns="http://www.w3.org/2000/svg" id="Layer_1" data-name="Layer 1" width="80" height="67" viewBox="0 0 80 67"><defs><style>.cls-1{fill:#fa117f;}.cls-2{fill:#d4e1f4;}.cls-3{fill:#0635c9;}</style></defs><title>icon</title><path class="cls-1" d="M80,49.3a6.8,6.8,0,0,1-7,7H59.1a1,1,0,0,0-1,.6l-5.4,8.9c-.9,1.6-2.7,1.6-3.7,0l-3.1-5.3c-.8-1.2-1.5-2.4-2.2-3.7a.9.9,0,0,0-.9-.5H36.7l1.5-2.5h5.2A2,2,0,0,1,45.5,55c1.6,2.8,3.3,5.6,5,8.3l.4.7.4-.6,5.1-8.6a2,2,0,0,1,1.8-1H73a4.3,4.3,0,0,0,4.1-2.5,7.5,7.5,0,0,0,.4-2.6c.1-6.2,0-12.5,0-18.7,0-3.4,0-6.8.1-10.1A4.6,4.6,0,0,0,73.7,15H65.2V12.4h8.5A6.7,6.7,0,0,1,80,19.4Z"></path><path class="cls-1" d="M47.5,16.2a1.2,1.2,0,0,0-.2-1.5,1.2,1.2,0,0,0-1.5-.2l-.6.5L30.4,29.3l-1.7,1.6c-.2-.2-.3-.5-.5-.6l-8.4-8.5c-.4-.4-.8-.7-1.3-.5a1.7,1.7,0,0,0-.9.8,1.4,1.4,0,0,0,.5,1.5l9.6,9.6a1.4,1.4,0,0,0,2.2.1L47.1,16.7Z"></path><path class="cls-2" d="M10.1,2.5V36.3s0,5.1,6.4,4.9,15.1,0,15.1,0a2,2,0,0,1,2.1,1l4.5,7.6-4.3,9.8-2.1-.2-7-11.2H8.7s-7.2-.4-7.2-5.9V8.3S3.3,1.6,6.6,1.5,10.1,2.5,10.1,2.5Z"></path><path class="cls-3" d="M40.5,49.9a.9.9,0,0,1,.9-.5c5.4,0,10.7.1,16,0a7.4,7.4,0,0,0,7.2-4.5,8.4,8.4,0,0,0,.7-3.5c-.1-7.9-.1-15.8-.1-23.7V7.9A8.2,8.2,0,0,0,65,5.7,7.5,7.5,0,0,0,57.4,0H7.4A7.6,7.6,0,0,0,0,7.5V42.3a7.2,7.2,0,0,0,2.9,5.5,7.5,7.5,0,0,0,5.4,1.6h15a1,1,0,0,1,1,.6l6.1,10.2c1,1.7,2.7,1.8,3.8.3l4.9-8.1ZM65.2,8.3v0ZM32.8,58l-.4.7c-1-1.8-2-3.4-3-5l-3.5-5.9a1.7,1.7,0,0,0-1.6-.9H7.8A4.9,4.9,0,0,1,2.7,43a5,5,0,0,1-.2-1.7c0-11.1,0-22.1-.1-33.2A5.3,5.3,0,0,1,6.8,2.6H57.4a5,5,0,0,1,5.3,5.1c.1,1.8.1,3.7.1,5.5V41.3a5.2,5.2,0,0,1-2.9,5.1,7.4,7.4,0,0,1-2.5.5H40.5a1.7,1.7,0,0,0-1.6.9C36.9,51.2,34.9,54.6,32.8,58Z"></path></svg>