<svg xmlns="http://www.w3.org/2000/svg" id="Layer_1" data-name="Layer 1" width="58" height="73" viewBox="0 0 58 73"><defs><style>.cls-1{fill:#d4e1f4;}.cls-2{fill:#fa117f;}.cls-3{fill:#0635c9;}</style></defs><title>icon</title><path class="cls-1" d="M21.1,4.4c-.8.8-10.5,7.9-9.2,23.4L6.7,41.7l7.7.2s.8-.2.9,1.3,0,7.5,0,7.5-.6,6.6,7.6,5.3l8,.2s1.2.4,1.6,2.4,2.3,9.2,2.3,9.2H52.5l.8,3.9-6.7.7-13.3-.6-3.9-.2-2-4.9-.9-5.5-4.1-.7-7.3.2A6.6,6.6,0,0,1,9.7,54a45.9,45.9,0,0,0-.2-7.7L1,45.5A10.8,10.8,0,0,1,1.6,42c.7-1.4,4.5-10.3,4.5-10.3S5.2,19.6,9.4,13.9a48.1,48.1,0,0,1,10.4-10A.8.8,0,0,1,21.1,4.4Z"></path><path class="cls-2" d="M31.7,9v2.4c0,.8-.4,1.3-1.1,1.3s-1-.5-1-1.2v-5a1.1,1.1,0,0,1,1.1-1.2c.6,0,1,.5,1,1.3Z"></path><path class="cls-2" d="M44.6,25.6H42.1c-.7-.1-1.1-.5-1.1-1a1.1,1.1,0,0,1,1.2-1.1h5a1,1,0,0,1,1.1,1c.1.7-.4,1-1.1,1.1Z"></path><path class="cls-2" d="M16.8,23.5h2.4c.8,0,1.2.4,1.2,1.1a1,1,0,0,1-1.1,1H14.2a1,1,0,0,1-1.1-1.1c0-.6.4-1,1.2-1Z"></path><path class="cls-2" d="M40.4,9.9a1,1,0,0,1-.1.4l-1.9,3.3a1.2,1.2,0,0,1-1.6.6,1.1,1.1,0,0,1-.2-1.6c.6-1.2,1.3-2.3,1.9-3.4a1.1,1.1,0,0,1,1.3-.5A1,1,0,0,1,40.4,9.9Z"></path><path class="cls-2" d="M25.5,13.2a.9.9,0,0,1-.6,1,1.1,1.1,0,0,1-1.3-.4c-.6-1-1.2-2-1.7-3l-.4-.8a.9.9,0,0,1,.4-1.2c.4-.2,1-.3,1.2.2s1.6,2.6,2.4,3.9Z"></path><path class="cls-2" d="M16.6,14.9l.5.2,3.2,1.8c.7.4.9,1,.6,1.5a1,1,0,0,1-1.6.3l-3.4-1.9c-.4-.3-.7-.6-.5-1.2S15.9,14.8,16.6,14.9Z"></path><path class="cls-2" d="M41,17.7c.1-.1.2-.5.5-.6L45,15a1,1,0,0,1,1.4.4.9.9,0,0,1-.4,1.4l-3.4,2C41.8,19.2,41,18.8,41,17.7Z"></path><path class="cls-2" d="M30.6,34.5H27.9c-.9-.1-1.3-.6-1.1-1.5a2.5,2.5,0,0,0-.5-2.2l-1.9-2.3a8.7,8.7,0,0,1-1.1-10.3A8.6,8.6,0,0,1,37.1,17a8.8,8.8,0,0,1-.2,11.5c-.7.7-1.2,1.4-1.8,2.1a3,3,0,0,0-.7,2.6,1,1,0,0,1-1,1.2ZM29,32.4h3a16.9,16.9,0,0,1,1.2-2.7,15,15,0,0,1,2-2.4,6.6,6.6,0,0,0,1.6-6.4,6.4,6.4,0,0,0-12.4,3.2,6.9,6.9,0,0,0,2,3.5C27.6,29,28.9,30.3,29,32.4Z"></path><path class="cls-2" d="M30.7,34.9h2.4A1.1,1.1,0,0,1,34.3,36a1,1,0,0,1-1.1,1H28.1A1,1,0,0,1,27,35.9a1,1,0,0,1,1.1-1Z"></path><path class="cls-2" d="M30.5,37.4h1.7a1.1,1.1,0,0,1,1.2,1c0,.6-.4,1-1.1,1.1H28.7a1.2,1.2,0,0,1-1-1.1,1.1,1.1,0,0,1,1.2-1Z"></path><path class="cls-3" d="M32,2.1A27.2,27.2,0,0,1,42.8,4.4,21.1,21.1,0,0,1,54.3,17.6h.1c1.7,4.7,2.1,12-.9,17.8a31.9,31.9,0,0,0-3.3,19.6,137.5,137.5,0,0,0,2.7,15.6H30.5c-.5-2.4-2.2-9.2-2.4-10l-.4-1.6H15.4a4.6,4.6,0,0,1-2.2-.9,4.1,4.1,0,0,1-2-3.3c-.1-3.2,0-7.9,0-8V45H2.8l-.5-.2h0l2.1-5.3c1.2-3.1,2.5-6.4,2.9-7.7l.2-.4v-.4a33.6,33.6,0,0,1,3-15.4,24.2,24.2,0,0,1,7.2-8.6A27.1,27.1,0,0,1,31.4,2.1H32M32,0h-.7C5.7,2.5,4.9,26.2,5.4,31.1,4.7,33.2,1.3,41.5.4,44s2.1,3.1,2.1,3.1H9.1v8.2c.5,5.1,5.7,6.1,6.3,6.1H26.1s2.3,9.3,2.5,10.5,1,1.1,1.6,1.1H54c1.5,0,1.1-1.5.9-2.9s-2.4-12.2-2.6-15.3a29.4,29.4,0,0,1,3-18.3c3.3-6.3,2.9-14.2,1-19.5C51,1.2,36,0,32,0Z"></path></svg>