<svg xmlns="http://www.w3.org/2000/svg" id="Layer_1" data-name="Layer 1" width="74" height="70" viewBox="0 0 74 70"><defs><style>.cls-1{fill:#d4e1f4;}.cls-2{fill:#0635c9;}.cls-3{fill:#fa117f;}</style></defs><title>icon</title><path class="cls-1" d="M23.2,9.3V31a9.6,9.6,0,0,0-4.5-4.8v6.6h.4a3.9,3.9,0,0,1,4.1,2.9v2.7c-.9-.1-1.4-.7-1.6-1.8a2.2,2.2,0,0,0-2.4-2.1h-1V9.3Z"></path><path class="cls-1" d="M62.8,45.2H22.5a.3.3,0,0,1,.1-.2,7.8,7.8,0,0,0,.7-3c0-.7.1-1.1.7-1.4H59.8L62.6,45Z"></path><path class="cls-2" d="M16.9,7.4V34.5h1.8V9.2H69.1V41.5A3.4,3.4,0,0,1,65.6,45h-43a.3.3,0,0,0-.1.2,8.6,8.6,0,0,1-1,1.6H65.6a5.3,5.3,0,0,0,5.3-5.3V7.4Z"></path><path class="cls-2" d="M71.9,0H16a2.1,2.1,0,0,0-2.1,2.1v5A2.1,2.1,0,0,0,16,9.2H71.9A2.1,2.1,0,0,0,74,7.1v-5A2.1,2.1,0,0,0,71.9,0Zm.4,7.1a.4.4,0,0,1-.4.4H16a.4.4,0,0,1-.4-.4v-5a.4.4,0,0,1,.4-.4H71.9a.4.4,0,0,1,.4.4Z"></path><path class="cls-2" d="M45.6,24.1H42.3a1.1,1.1,0,0,0-1,1V36.8a1,1,0,0,0,1,1h3.3a1,1,0,0,0,1-1V25.1A1.1,1.1,0,0,0,45.6,24.1Zm-.7,12H43.1V25.9h1.8Z"></path><path class="cls-2" d="M37.3,27.1H33.9a1,1,0,0,0-1,1v8.7a1,1,0,0,0,1,1h3.4a1,1,0,0,0,1-1V28.1A1,1,0,0,0,37.3,27.1Zm-.8,9H34.7V28.8h1.8Z"></path><path class="cls-2" d="M53.9,18.2H50.7a1,1,0,0,0-1,1.1V36.8a.9.9,0,0,0,1,1h3.2a1,1,0,0,0,1.1-1V19.3A1.1,1.1,0,0,0,53.9,18.2Zm-.7,17.9H51.4V20h1.8Z"></path><path class="cls-2" d="M53.9,56.6h0a.9.9,0,0,1-1.3,0l-8.9-9.4a.8.8,0,0,1,.1-1.2h0a.8.8,0,0,1,1.2.1l8.9,9.3A.9.9,0,0,1,53.9,56.6Z"></path><path class="cls-2" d="M34,56.7h0a.9.9,0,0,1-.1-1.3l8.9-9.3a.9.9,0,0,1,1.3-.1h0a1.1,1.1,0,0,1,0,1.3l-8.9,9.3A.8.8,0,0,1,34,56.7Z"></path><path class="cls-3" d="M28.6,61.2a5.8,5.8,0,0,0-2.2-4.6A11.2,11.2,0,0,0,23.1,55c-1.5-.5-1.5-.5-1.5-2s-.2-1-.9-1.2L19,51.4l-.4-.2.6-.3a18.8,18.8,0,0,0,2.3-1.6h.1c.2-.1.4-.4.6-.6a11.8,11.8,0,0,0,1.3-1.8l.7-1.6a.3.3,0,0,0,.1-.2l.3-.8c.1-.7.3-1.3.4-1.9l.4-.4a4,4,0,0,0,1.3-1.3,2.9,2.9,0,0,0,.2-2.4,2.5,2.5,0,0,0-1-1.5.9.9,0,0,1-.4-1,10.8,10.8,0,0,0-.8-5.3,11.7,11.7,0,0,0-1.5-2.7,9.5,9.5,0,0,0-2.1-1.9H21l-1.2-.8h0l-1.1-.5-.5-.2-1.3-.4-2-.3h-.1A11.1,11.1,0,0,0,9,24.9a1.1,1.1,0,0,0-.7.9,2.1,2.1,0,0,1-1.2,1.9c-.7.5-1.6,1-2.3,1.6a1.4,1.4,0,0,0-.8.9,10.1,10.1,0,0,0-.9,5.7,1.1,1.1,0,0,1-.2.6c-1.9,1-1.9,4.2.3,5.4a.5.5,0,0,1,.4.6,10.5,10.5,0,0,0,6,8.5l.5.3-2.2.5a1.1,1.1,0,0,0-.7,1v1.1c0,.4-.1.7-.6.8L4,55.6a6,6,0,0,0-4,5.6v7.5C0,69.7.3,70,1.3,70H27.4c1,0,1.2-.3,1.2-1.2Zm-9.4-5.6c-.6,1.3-1.4,2.7-2.2,4.2L15.8,59C17,57.8,18.2,56.7,19.2,55.6ZM8.4,28.9a4.2,4.2,0,0,0,1.5-2.2.9.9,0,0,1,.6-.7,8.9,8.9,0,0,1,6.4-.5l1.3.5.5.2A9.6,9.6,0,0,1,23.2,31c.2.5.3,1,.5,1.6a9.6,9.6,0,0,1,.1,3.4,1.4,1.4,0,0,0-.2.7h-.2c0-.1-.1-.2-.1-.3s-.1-.5-.1-.7a3.9,3.9,0,0,0-4.1-2.9H13.7c-.7,0-.9-.2-1-.9s-1.1-2.4-2.8-2.5h-2ZM5.5,43.4a7.7,7.7,0,0,1-.2-1.5c0-.9-.1-1-1-1.4a1.5,1.5,0,0,1-1.1-1.6,1.1,1.1,0,0,1,.9-1.1c.8-.2,1-.5.8-1.3a10.7,10.7,0,0,1,.2-4.7c.2-.6.5-1,1.1-.8H9.7c.9,0,1.2.3,1.3,1.1a2.5,2.5,0,0,0,2,2.3h6.2a2.2,2.2,0,0,1,2.4,2.1c.2,1.1.7,1.7,1.6,1.8l1.3-.3c.3-.2.6,0,.8.4a1.7,1.7,0,0,1-1,2H24c-.6.3-.7.7-.7,1.4a7.8,7.8,0,0,1-.7,3,.3.3,0,0,0-.1.2,8.6,8.6,0,0,1-1,1.6,8.9,8.9,0,0,1-5.9,3.4A8.9,8.9,0,0,1,5.5,43.4Zm7.4,15.5-1.3.9L9.2,55.3Zm.5,9.4H1.7V61.2a4.2,4.2,0,0,1,2.8-4l2.7-1a.6.6,0,0,1,.8.3l2.4,4.6c.4.8.9.9,1.6.4l1.4-.9ZM12,55.5a.4.4,0,0,1-.1-.3V51.9h4.9a10.8,10.8,0,0,0,0,1.8,2.8,2.8,0,0,1-1.2,2.9,7.7,7.7,0,0,0-1.2,1.3ZM26.9,67.6v.7H15.2V60.6l1.4.9c.8.5,1.2.4,1.7-.4l2.4-4.5c.2-.4.4-.5.8-.3l2.6.9a4.2,4.2,0,0,1,2.8,4Z"></path><ellipse class="cls-3" cx="16.8" cy="66.5" rx="1.1" ry="1.1"></ellipse><ellipse class="cls-3" cx="16.8" cy="63.6" rx="1.1" ry="1.1"></ellipse></svg>