<svg xmlns="http://www.w3.org/2000/svg" id="Layer_1" data-name="Layer 1" width="64" height="64" viewBox="0 0 64 64"><defs><style>.cls-1{fill:#0635c9;}.cls-2{fill:#d4e1f4;}.cls-3{fill:#fa117f;}</style></defs><title>icon</title><rect class="cls-1" x="1.1" y="11.7" width="61.9" height="1.69"></rect><path class="cls-2" d="M9.1,52.3s-1.3,0-1.4-2.1V4.5S7.5,1.9,9.1,1.9s.5-1,0-1H3S.7,1.4.6,3.5,1,50.3,1,50.3s1.5,2.9,3.2,2.9H7.4Z"></path><path class="cls-1" d="M7.7,3.7l-1-.2a3.2,3.2,0,0,0,0,6.3l1-.2A3,3,0,0,0,9.8,6.7,3,3,0,0,0,7.7,3.7Zm0,3.9a1.2,1.2,0,0,1-1,.4A1.3,1.3,0,0,1,5.3,6.7,1.4,1.4,0,0,1,6.7,5.3a1.2,1.2,0,0,1,1,.5,1.3,1.3,0,0,1,.4.9A1.8,1.8,0,0,1,7.7,7.6Z"></path><path class="cls-1" d="M14.7,3.5a3.2,3.2,0,1,0,3.2,3.2A3.1,3.1,0,0,0,14.7,3.5Zm0,4.5a1.4,1.4,0,0,1-1.4-1.3,1.4,1.4,0,0,1,1.4-1.4,1.4,1.4,0,0,1,1.4,1.4A1.3,1.3,0,0,1,14.7,8Z"></path><path class="cls-1" d="M22.5,3.5a3.2,3.2,0,1,0,3.1,3.2A3.1,3.1,0,0,0,22.5,3.5Zm0,4.5a1.3,1.3,0,0,1-1.4-1.3,1.4,1.4,0,1,1,2.8,0A1.3,1.3,0,0,1,22.5,8Z"></path><path class="cls-1" d="M34.4,5.5H59.7a.9.9,0,0,1,.9.9h0a.9.9,0,0,1-.9,1H34.4a.9.9,0,0,1-1-1h0A.9.9,0,0,1,34.4,5.5Z"></path><path class="cls-1" d="M60.3,0H3.7A3.6,3.6,0,0,0,0,3.6v47a3.6,3.6,0,0,0,3.7,3.6H19.6a1.7,1.7,0,0,1-.1-.7,3.7,3.7,0,0,1,.1-1.1H3.7a1.9,1.9,0,0,1-1.9-1.8V3.6A2,2,0,0,1,3.7,1.8H60.3a2,2,0,0,1,1.9,1.8v47a1.9,1.9,0,0,1-1.9,1.8H44.4a3.7,3.7,0,0,1,.1,1.1,1.7,1.7,0,0,1-.1.7H60.3A3.6,3.6,0,0,0,64,50.6V3.6A3.6,3.6,0,0,0,60.3,0Z"></path><path class="cls-2" d="M26.2,40.5s-5.6-1-5.1-6.6a5.6,5.6,0,0,1,3.7-4.2c.3-.3.4-.4.3-1.1s.4-6.2,5.6-7.5c.9-.5-.6-.9-1.3-.9s-5.6.7-6.8,2.5A21,21,0,0,0,19.7,29c-1.2.9-5.2,5.3-3,8.6S21.6,41,21.6,41Z"></path><path class="cls-3" d="M28.5,20.7a8.5,8.5,0,0,1,5.8,2.6l.6.6h1.9a5.5,5.5,0,0,1,3.1.8,5.3,5.3,0,0,1,2.5,3.9l.2.8.8.3a7.4,7.4,0,0,1,3.5,3.2,4.5,4.5,0,0,1,.4,3.3c-.6,2.4-2.7,4.3-4.2,4.3H21.5a7.5,7.5,0,0,1-2.5-.9A5,5,0,0,1,16.6,35v-.2c.1-1.7.3-3.3,3.1-4.8l.9-.5v-1A7.6,7.6,0,0,1,23,23.2a7.6,7.6,0,0,1,5.5-2.5m0-1.7a9.9,9.9,0,0,0-9.6,9.5c-3.8,2.1-3.9,4.6-4.1,6.4.2,6.6,6.6,7.1,6.6,7.1H43.1c4.8,0,10.3-9.5,1-14a7,7,0,0,0-7.3-6H35.5a10,10,0,0,0-7-3.1Z"></path><path class="cls-3" d="M26.2,42v7.3H27a1,1,0,0,0,1-.9V42Z"></path><path class="cls-3" d="M26.4,49.3H22.2v-.8a.9.9,0,0,1,.9-.9h3.3Z"></path><rect class="cls-3" x="22.2" y="48.9" width="1.7" height="1.32"></rect><path class="cls-3" d="M23.1,49.9a3.6,3.6,0,0,0-3.6,3.6,3.6,3.6,0,1,0,7.2,0A3.6,3.6,0,0,0,23.1,49.9Zm0,5.1a1.6,1.6,0,0,1-1.6-1.5,1.6,1.6,0,0,1,1.6-1.6,1.6,1.6,0,0,1,1.5,1.6A1.5,1.5,0,0,1,23.1,55Z"></path><rect class="cls-3" x="31.1" y="40.5" width="1.9" height="17.83"></rect><path class="cls-3" d="M32,56.8a3.6,3.6,0,1,0,3.6,3.6A3.6,3.6,0,0,0,32,56.8Zm0,5.4a1.8,1.8,0,1,1,0-3.6,1.8,1.8,0,1,1,0,3.6Z"></path><path class="cls-3" d="M40,50.2V45h.9a.9.9,0,0,1,.9.9v4.3Z"></path><path class="cls-3" d="M37.8,41.5v5.2H37a.9.9,0,0,1-.9-1V41.5Z"></path><path class="cls-3" d="M40.7,45H36.1v.7a.9.9,0,0,0,.9,1h3.7Z"></path><path class="cls-3" d="M40.9,49.9a3.6,3.6,0,0,0-3.6,3.6,3.6,3.6,0,0,0,7.2,0A3.6,3.6,0,0,0,40.9,49.9Zm0,5.4a1.8,1.8,0,0,1-1.8-1.8,1.8,1.8,0,0,1,1.8-1.9,1.9,1.9,0,1,1,0,3.7Z"></path><path class="cls-3" d="M40.9,49.9a3.6,3.6,0,0,0-3.6,3.6,3.6,3.6,0,0,0,7.2,0A3.6,3.6,0,0,0,40.9,49.9Zm0,5.4a1.8,1.8,0,0,1-1.8-1.8,1.8,1.8,0,0,1,1.8-1.9,1.9,1.9,0,1,1,0,3.7Z"></path></svg>